<svg xmlns="http://www.w3.org/2000/svg" width="100" height="100" viewBox="0 0 100 100">
  <defs>
    <linearGradient id="sky" x1="0" y1="0" x2="1" y2="1">
      <stop offset="0" stop-color="#38bdf8"/>
      <stop offset="1" stop-color="#0ea5e9"/>
    </linearGradient>
  </defs>
  <rect width="100" height="100" rx="26" fill="url(#sky)"/>
  <path d="M50 26 c-7 -4 -17 -2 -20 5 c-7 -1 -12 5 -11 11 c-5 3 -5 10 0 13 c-1 6 4 11 10 10 c2 5 9 7 13 3 l0 5 l8 0 z" fill="#ffffff"/>
  <g stroke="#0ea5e9" stroke-width="1.8" fill="none" opacity="0.35" stroke-linecap="round">
    <path d="M38 38 q5 3 0 7 q-5 3 0 7"/>
    <path d="M30 46 q4 -3 8 0"/>
  </g>
  <g stroke="#bae6fd" stroke-width="2.4" fill="none" stroke-linecap="round" stroke-linejoin="round">
    <path d="M58 36 h9 v-8"/>
    <path d="M58 50 h14 M72 50 v-9"/>
    <path d="M58 64 h9 v8"/>
    <path d="M67 64 h7"/>
  </g>
  <circle cx="67" cy="28" r="3.4" fill="#bae6fd"/>
  <circle cx="72" cy="41" r="3.4" fill="#bae6fd"/>
  <circle cx="74" cy="64" r="3.4" fill="#bae6fd"/>
  <circle cx="67" cy="72" r="3.4" fill="#bae6fd"/>
</svg>
